<svg xmlns="http://www.w3.org/2000/svg" width="500" height="750" viewBox="0 0 500 750">
  <title>Space 02 Acapulco Gold Bottom Proof</title>
  <defs><style>
    .tile{fill:#fff8e5;stroke:#173f2c;stroke-width:8}.bar{fill:#8b5a2b;stroke:#173f2c;stroke-width:6}.title{font-family:Georgia,serif;font-size:39px;font-weight:700;fill:#173f2c;text-anchor:middle}.price{font-family:Arial Black,Arial,sans-serif;font-size:56px;font-weight:900;fill:#173f2c;text-anchor:middle}.sub{font-family:Arial,sans-serif;font-size:24px;font-weight:900;fill:#173f2c;text-anchor:middle;letter-spacing:2px}.line{stroke:#173f2c;stroke-width:5;opacity:.7}.gold{fill:#c99a34;stroke:#173f2c;stroke-width:6}.ray{stroke:#c99a34;stroke-width:12;stroke-linecap:round}.note{font-family:Arial,sans-serif;font-size:18px;font-weight:700;fill:#7c6a34;text-anchor:middle;letter-spacing:1px}</style></defs>
  <rect class="tile" x="4" y="4" width="492" height="742" rx="10"/>
  <rect class="bar" x="4" y="4" width="492" height="86" rx="8"/>
  <text class="note" x="250" y="58">BROWN SET</text>
  <line class="line" x1="4" y1="90" x2="496" y2="90"/>
  <text class="title" x="250" y="145">ACAPULCO</text>
  <text class="title" x="250" y="192">GOLD</text>
  <g transform="translate(250 365)">
    <line class="ray" x1="0" y1="-150" x2="0" y2="-105"/><line class="ray" x1="0" y1="150" x2="0" y2="105"/><line class="ray" x1="-150" y1="0" x2="-105" y2="0"/><line class="ray" x1="150" y1="0" x2="105" y2="0"/><line class="ray" x1="-105" y1="-105" x2="-76" y2="-76"/><line class="ray" x1="105" y1="105" x2="76" y2="76"/><line class="ray" x1="105" y1="-105" x2="76" y2="-76"/><line class="ray" x1="-105" y1="105" x2="-76" y2="76"/>
    <circle class="gold" cx="0" cy="0" r="95"/>
    <ellipse class="gold" cx="92" cy="86" rx="54" ry="34" transform="rotate(-25)"/>
  </g>
  <line class="line" x1="40" y1="560" x2="460" y2="560"/>
  <text class="price" x="250" y="640">60</text>
  <text class="sub" x="250" y="690">BUD BUCKS</text>
</svg>
