<svg xmlns="http://www.w3.org/2000/svg" width="500" height="750" viewBox="0 0 500 750">
  <title>Space 38 OG Kush Right Proof</title>
  <defs><style>
    .tile{fill:#fff8e5;stroke:#173f2c;stroke-width:8}.bar{fill:#244f9e;stroke:#173f2c;stroke-width:6}.title{font-family:Georgia,serif;font-size:48px;font-weight:700;fill:#173f2c;text-anchor:middle}.price{font-family:Arial Black,Arial,sans-serif;font-size:56px;font-weight:900;fill:#173f2c;text-anchor:middle}.sub{font-family:Arial,sans-serif;font-size:24px;font-weight:900;fill:#173f2c;text-anchor:middle;letter-spacing:2px}.line{stroke:#173f2c;stroke-width:5;opacity:.7}.crown{fill:#d8b24a;stroke:#173f2c;stroke-width:6}.leaf{fill:#2d6b3f;stroke:#173f2c;stroke-width:5}.note{font-family:Arial,sans-serif;font-size:18px;font-weight:700;fill:#7c6a34;text-anchor:middle;letter-spacing:1px}</style></defs>
  <rect class="tile" x="4" y="4" width="492" height="742" rx="10"/>
  <rect class="bar" x="4" y="4" width="492" height="86" rx="8"/>
  <text class="note" x="250" y="58">DARK BLUE SET</text>
  <line class="line" x1="4" y1="90" x2="496" y2="90"/>
  <text class="title" x="250" y="160">OG KUSH</text>
  <g transform="translate(250 365)">
    <path class="crown" d="M-132,48 L-100,-82 L-36,10 L0,-104 L36,10 L100,-82 L132,48 Z"/>
    <rect class="crown" x="-132" y="48" width="264" height="62" rx="12"/>
    <path class="leaf" d="M0,38 C42,-18 86,-16 112,24 C72,24 32,52 0,38 Z" transform="rotate(13)"/>
    <path class="leaf" d="M0,38 C-42,-18 -86,-16 -112,24 C-72,24 -32,52 0,38 Z" transform="rotate(-13)"/>
  </g>
  <line class="line" x1="40" y1="560" x2="460" y2="560"/>
  <text class="price" x="250" y="640">350</text>
  <text class="sub" x="250" y="690">BUD BUCKS</text>
</svg>
